# xmcd CD database file
#
# Track frame offsets:
#	150
#	22655
#	42512
#	63670
#	76937
#	99517
#	115420
#	134157
#	152712
#	168847
#	180112
#	199757
#
# Disc length: 2875 seconds
#
# Revision: 0
# Processed by: cddbd v1.5.2PL0 Copyright (c) Steve Scherf et al.
# Submitted via: CDex 1.70beta2
#
DISCID=960b390c
DTITLE=Dawn Renee - Wildest Dreams
DYEAR=2001
DGENRE=Country
TTITLE0=Big Sky
TTITLE1=Someplace We Have Been
TTITLE2=Small Town Depression
TTITLE3=Wildest Dreams
TTITLE4=Cloud 10
TTITLE5=She'll Never Grow Old
TTITLE6=Strolling Blues
TTITLE7=Windows To Your Soul
TTITLE8=We Almost Drve To Portland
TTITLE9=Sunup Sundance
TTITLE10=Prayer For A Child
TTITLE11=Amazing Grace
EXTD=YEAR: 2001
EXTT0=
EXTT1=
EXTT2=
EXTT3=
EXTT4=
EXTT5=
EXTT6=
EXTT7=
EXTT8=
EXTT9=
EXTT10=
EXTT11=
PLAYORDER=
